<?xml version="1.0" encoding="UTF-8"?>
<svg id="Layer_1" xmlns="http://www.w3.org/2000/svg" xmlns:xlink="http://www.w3.org/1999/xlink" version="1.1" viewBox="0 0 300 300">
  <!-- Generator: Adobe Illustrator 29.2.1, SVG Export Plug-In . SVG Version: 2.1.0 Build 116)  -->
  <defs>
    <style>
      .st0 {
        fill: #10733a;
      }

      .st0, .st1, .st2, .st3, .st4, .st5, .st6, .st7, .st8 {
        stroke: #231f20;
      }

      .st0, .st1, .st9, .st5, .st8 {
        stroke-width: 6px;
      }

      .st0, .st2, .st3, .st5, .st6, .st8 {
        stroke-linecap: round;
      }

      .st0, .st3, .st5, .st6, .st7, .st8 {
        stroke-linejoin: round;
      }

      .st1, .st2, .st9, .st4 {
        stroke-miterlimit: 10;
      }

      .st1, .st3, .st4, .st7 {
        fill: #fff;
      }

      .st2, .st3, .st4, .st6, .st7 {
        stroke-width: 4px;
      }

      .st2, .st5, .st6 {
        fill: none;
      }

      .st10 {
        fill: #231f20;
      }

      .st9 {
        fill: #fdfefe;
        stroke: #020202;
      }

      .st3, .st4, .st7, .st11 {
        display: none;
      }

      .st12 {
        isolation: isolate;
      }

      .st8 {
        fill: #f4dca2;
      }
    </style>
  </defs>
  <g id="P69zkn" class="st11">
    <image id="P69zkn1" class="st12" width="1202" height="675" transform="translate(-60.2 59.5) scale(.4)" xlink:href="100-1.png"/>
  </g>
  <g id="mew3l0" class="st11">
    <image id="mew3l01" class="st12" width="361" height="549" transform="translate(-324 7.9) scale(2)" xlink:href="100-2.png"/>
  </g>
  <g id="eRQTAL" class="st11">
    <image id="eRQTAL1" class="st12" width="225" height="224" transform="translate(49.2 48.2) scale(.9)" xlink:href="100-3.png"/>
  </g>
  <g class="st11">
    <path class="st8" d="M80.8,87.8s14.4-54.9,99.1-34.5c0,0,47.6,13.5,53.2,54.2,0,0,5,38.1-60.2,21.1l-92-40.8h0Z"/>
    <path class="st1" d="M70.6,144.7c-26-9.8-17.5-35.5-17.5-35.5,9.4-27,62-20.3,62-20.3,39.5,4.9,90,33.1,106.3,33.4s10.6-20,10.6-20c0,0,18.6,6.7,18.6,27.5,0,0-1.9,26.3-34.1,26.3,0,0-27.9-.7-53.5-13.9,0,0-36.4-16.9-60.6-19.1,0,0-40.6-4.1-31.8,16.3v5.2c0,0,0,0,0,0Z"/>
    <path class="st0" d="M89.7,123c25.7-3.2,73.4,19.3,73.4,19.3,38.1,18.4,63.8,12.8,63.8,12.8-5.7,33-38.3,58.4-77.7,58.4s-78.6-30.8-78.6-68.7,0-3.7.2-5.5c0,0-7.2-13,18.8-16.2h0Z"/>
    <path class="st5" d="M186.4,204.9s-19.8,3.4-32.1-5.6c0,0-30.4,2.8-43.1-9,0,0-7.9,7.2-10.9,7.2"/>
    <path class="st5" d="M181.6,150.5s-17.5,13.6-20.5,13.8c0,0-7.1-20.9-7.5-25.2"/>
    <path class="st5" d="M154.5,197.4s4.7-25.4,5.8-30.6"/>
    <path class="st5" d="M101.1,123.8s-8.4,17.4-8.4,23c0,0,1.1,20.2,17,42.4"/>
    <path class="st5" d="M91.6,144s-6.9-12.5-7.7-19.4"/>
    <path class="st6" d="M215.4,74.4s-29.1-12.3-36.7,30.7"/>
    <path class="st10" d="M197.8,109.4c0-10.9,5.3-19.7,11.8-19.7s11.8,8.8,11.8,19.7-4.6,15-11.7,11.9-11.9-2.3-11.9-11.9Z"/>
    <path class="st10" d="M133.8,91.6c-.1-9.1,11.8-14.4,22.3-12.2,10.5,2.2,17.6,11.1,15.8,20s-10.5,5.2-20.6,1.6c-10-3.5-17.4-5.5-17.4-9.3Z"/>
    <path class="st2" d="M190.6,58s-25.3-6.9-34.5,21.4"/>
    <path class="st2" d="M111.7,87.1s-2-28.1,35.9-38.2"/>
  </g>
  <path class="st7" d="M88.7,180s1.9-8.3-3.2-17.5c0,0-5.4-10.8-11.9-14.1l-22.7,24.8s-4.9,5.6,2,5.6l35.7,1.1h0Z"/>
  <path class="st4" d="M131,182.4s15.5-4.6,10.9-21.4c0,0-4.3-13.5-20.5-14.1,0,0-12.6-.3-15.5,9.3l-2.4,23.8s-.5,3.2,2.9,3.3l24.7-1h0Z"/>
  <path class="st4" d="M215,167.6s-8.5-3.9-22.6,9.4c0,0-14.4,15.3-5.6,21.1l36.1,13.6s6,3.1,5.1-3.7l-13-40.4h0Z"/>
  <path class="st7" d="M168.4,213.1s-19.4,4-35.6-.2c0,0,12.4,28.1,13.6,30.5,0,0,3.1,10,7.6.4l14.4-30.6h0Z"/>
  <polygon class="st3" points="98.3 198 89.6 190.5 84.6 204.9 98.3 198"/>
  <path class="st9" d="M257.6,140.2c-11.9.2-22.2,6.1-31.1,13.5-.2.2,0,0,0-.4,1-5.4,1.7-10.8,2.4-16.2,2.9-20.6,5.3-41.3,6.3-62.2.5-9.5.7-19.1.3-28.6-.1-2.6-1-5.2-2.9-7.1-1.7-1.7-4.6-3-7.1-2.9s-5.3,1-7.1,2.9-3,4.4-2.9,7.1c.9,21-.9,42.2-3.1,63-.7,6.6-1.5,13.2-2.4,19.9l.4-2.7c-2.2,16.6-4.9,33.2-8.2,49.6-.8,4.1-1.7,8.2-2.6,12.3-1.1,4.9,1.1,9.8,5.8,11.8,2,.8,4.4,1.2,6.5.5l2.4-1c1.5-.9,2.7-2.1,3.6-3.6,4.3-5.8,7.6-12.4,12-18.1l-1.6,2c4-5.2,9-9.7,14.2-13.8l-2,1.6c3.4-2.6,6.9-4.9,10.9-6.6l-2.4,1c2.6-1.1,5.3-1.9,8.1-2.3l-2.7.4c1.1-.1,2.1-.2,3.2-.2,2.6,0,5.2-1.1,7.1-2.9,1.7-1.7,3-4.6,2.9-7.1-.2-5.3-4.4-10.1-10-10h0Z"/>
  <path class="st9" d="M161.3,197.8c6.7-.2,13.2-2,19-5.2s10.3-7.6,14.1-12.8c4.7-6.4,6.5-14.4,7.6-22.1,1.3-9.1,2.1-18.3,1.5-27.4-.3-4.9-.9-9.8-2.1-14.6-1-4.1-2.6-8.4-4.9-12-3.2-5-7.8-9-12.8-12.1-5.7-3.5-11.9-5.4-18.5-6.2-11.2-1.4-22.2,3.5-30.2,11.1-11.9,11.4-16.3,28.2-18.2,44-.6,5.3-1.3,10.7-1.2,16,.3,11.2,3.9,22.6,12.3,30.4,2.3,2.2,4.9,4.1,7.6,5.7,2.3,1.3,5.2,1.7,7.7,1,2.3-.6,4.8-2.4,6-4.6,2.5-4.8,1.3-10.9-3.6-13.7-1.3-.8-2.6-1.6-3.7-2.5l2,1.6c-1.8-1.4-3.4-3.1-4.9-4.9l1.6,2c-1.4-1.9-2.6-4-3.6-6.1l1,2.4c-1.2-2.9-2-6-2.4-9.2l.4,2.7c-.9-7.4,0-15,1-22.4l-.4,2.7c.9-7,2.5-13.9,5.3-20.5l-1,2.4c1.6-3.8,3.6-7.4,6.1-10.7l-1.6,2c1.9-2.4,4.1-4.6,6.5-6.5l-2,1.6c2.2-1.7,4.6-3.1,7.1-4.1l-2.4,1c1.9-.8,3.9-1.4,6-1.7l-2.7.4c2.5-.3,5-.3,7.5,0l-2.7-.4c2.9.4,5.7,1.2,8.4,2.3l-2.4-1c2.8,1.2,5.4,2.7,7.9,4.6l-2-1.6c1.9,1.5,3.8,3.2,5.3,5.2l-1.6-2c1.2,1.6,2.2,3.3,2.9,5.2l-1-2.4c1.6,3.8,2.4,7.8,3,11.9l-.4-2.7c1.3,9.7.9,19.6-.4,29.2l.4-2.7c-.7,5.2-1.6,10.6-3.6,15.5l1-2.4c-1,2.3-2.3,4.4-3.8,6.4l1.6-2c-1.6,2.1-3.5,3.9-5.6,5.6l2-1.6c-2.2,1.7-4.6,3.1-7.2,4.2l2.4-1c-2.6,1.1-5.3,1.8-8.1,2.2l2.7-.4c-1,.1-1.9.2-2.9.2-2.6,0-5.2,1.1-7.1,2.9-1.7,1.7-3,4.6-2.9,7.1.2,5.3,4.4,10.2,10,10h0Z"/>
  <path class="st9" d="M75.9,197c12.7-.4,24.1-7,31.3-17.3,4.3-6.1,5.9-13.8,7.1-21,1.4-8.8,2.2-17.6,1.8-26.5-.2-4.6-.8-9.2-1.8-13.6-.9-3.8-2.3-7.9-4.6-11.1-6.8-9.6-17.9-14.3-29.4-15.3-10.4-.9-20.2,2.9-27.9,9.7-6.5,5.7-10.7,13.5-13.6,21.5-2.3,6.4-3.4,13.1-4.3,19.8-.6,4.8-1.2,9.8-1.2,14.6.2,10.6,3.5,21.3,11.3,28.7,2.2,2.1,4.7,3.9,7.3,5.5,2.3,1.3,5.2,1.7,7.7,1,2.3-.6,4.8-2.4,6-4.6,2.5-4.8,1.3-10.9-3.6-13.7-1.2-.7-2.3-1.4-3.4-2.3l2,1.6c-1.6-1.3-3.1-2.7-4.4-4.4l1.6,2c-1.4-1.8-2.5-3.8-3.4-5.9l1,2.4c-1-2.6-1.7-5.2-2.1-8l.4,2.7c-.9-6.9,0-14,.9-20.8l-.4,2.7c.9-6.4,2.3-12.7,4.8-18.6l-1,2.4c1.5-3.5,3.3-6.9,5.7-9.9l-1.6,2c1.7-2.1,3.6-4.1,5.7-5.7l-2,1.6c2-1.6,4.2-2.8,6.6-3.9l-2.4,1c1.9-.8,3.9-1.3,6-1.6.6,0,5.9-1.4,14.1,4,6.6,4.9,11,44.9-14.1,61.1-2.2,1.4-5.2,1.1-7.1,2.9-1.7,1.7-3,4.6-2.9,7.1.2,5.3,4.4,10.2,10,10h0Z"/>
  <path class="st9" d="M193,54.5c-18.6,4.8-37.5,8.1-56.5,10.6l2.7-.4c-20.1,2.7-40.2,4.5-60.4,5.9-5.6.4-11.1.7-16.7,1.1-2.7.2-5.2,1-7.1,2.9-1.7,1.7-3,4.6-2.9,7.1s1,5.3,2.9,7.1,4.4,3.1,7.1,2.9c17.5-1.1,35-2.3,52.5-4.1,18.5-1.9,37-4.3,55.3-7.7,9.6-1.8,19.1-3.8,28.6-6.2,5.1-1.3,8.6-7.2,7-12.3s-6.9-8.4-12.3-7h0Z"/>
  <path class="st9" d="M199.3,23.7c-18.8,4.3-37.6,8.3-56.6,11.3-4.6.7-9.2,1.4-13.8,2l2.7-.4c-18.3,2.5-36.7,4.1-55,5.7-6.8.6-13.7,1.2-20.5,1.8-2.7.2-5.1,1-7.1,2.9s-3,4.6-2.9,7.1,1,5.3,2.9,7.1c1.9,1.7,4.5,3.2,7.1,2.9,20.9-1.8,41.8-3.5,62.6-5.9,17.4-2,34.7-4.6,51.9-8,11.4-2.2,22.7-4.7,34.1-7.3,5.1-1.2,8.6-7.3,7-12.3-1.7-5.4-6.8-8.2-12.3-7h0Z"/>
  <g id="VqNlMv" class="st11">
    <image id="VqNlMv1" class="st12" width="1281" height="721" transform="translate(-852.9 -426.1)" xlink:href="100-4.png"/>
  </g>
</svg>