<svg id="ѓЊѓCѓ_Ѓ__1" data-name="ѓЊѓCѓ„Ѓ[_1" xmlns="http://www.w3.org/2000/svg" viewBox="0 0 161.93 225.08"><defs><style>.cls-1{fill:#fff;}.cls-2{fill:#1a171b;}</style></defs><path class="cls-1" d="M144.56,146.65c-.79,10.86.36,21.84-3.76,32.18a81.55,81.55,0,0,1-5,10.95c-2.13,3.54-6.3,6.12-9.32,8.79a74.7,74.7,0,0,1-17,11.82c-3.73,1.82-11,2.32-13.56,5.56,5.27,5.73,12.31,6.16,19.26,4.1,3.85-1.14,7.87-1.9,11.76-3,5.12-1.37,8.69-3.8,12.82-7.12a56.28,56.28,0,0,0,15.53-21c3.54-8.44,6.95-20.47,3.52-29.62-1.33-3.54-5-7.1-7.59-10-1.71-1.91-3.41-2.33-5.77-3.27Z"/><path class="cls-2" d="M140.52,139.76a3.86,3.86,0,0,0,.45,5.43c9.56,8.11,14.22,19.27,13.11,31.43C152.79,190.75,144,203.46,130,211.51c-9,5.15-20.85,7.15-30.27,5.09a34.89,34.89,0,0,1-9.7-3.38,3.85,3.85,0,0,0-3.76,6.72,42.48,42.48,0,0,0,11.82,4.19c11.17,2.44,25.21.11,35.75-5.94,16-9.18,26.42-24.46,27.92-40.87a44.13,44.13,0,0,0-15.8-38A3.86,3.86,0,0,0,140.52,139.76Z"/><path class="cls-1" d="M126.77,113.35c-7.71-9.15-17.51-18.64-25.71-29.24-9.7-12.57-37.22-56.68-41.62-65.46A29.52,29.52,0,0,0,48.68,7.41c-13.59-8.65-29,3-28.33,15.12,1,16.83,23.54,43.28,34.51,62.77L53.28,84c-16.52,1.45-26.42,9.21-30.88,17.89a30.67,30.67,0,0,0-3,10.23l-2.58.16c-6.39,4.12-10.49,13.14-10.25,20.94a32.93,32.93,0,0,0,2.64,12.64l-1.85-1.1c-8.1,13.8-.44,30.31,6.33,35.9,5.2,4.31,10.59,5.67,15.56,5.14l-.08.2c13.42,23,52.17,33.94,75.56,26.34a59.07,59.07,0,0,0,37.68-36.75C149.37,155.49,141.49,133.91,126.77,113.35Z"/><path class="cls-2" d="M14.68,109.07c-7.24,4.68-12.29,14.89-12,24.29.34,11.17,4.16,17.47,9.52,25.15,7.74,11.09,23,16.84,35.57,13.38C57.81,169.11,64,161,64.84,149.53a3.85,3.85,0,1,0-7.68-.54c-.73,10.38-6.63,14.14-11.45,15.47-9.39,2.6-21.34-2-27.21-10.35-5.33-7.64-7.87-12.2-8.13-21-.21-6.77,3.44-14.33,8.49-17.59a3.85,3.85,0,1,0-4.18-6.47Z"/><path class="cls-2" d="M4,142.84c-8.87,15.12-1.38,33.73,7.19,40.82,6.91,5.71,15.06,7.51,23,5.05,8.41-2.6,15.9-10.08,18.22-18.18a3.85,3.85,0,0,0-7.4-2.12c-1.39,4.85-6.33,10.85-13.1,13-5.42,1.68-10.87.42-15.78-3.63-5.71-4.73-12.42-19.12-5.46-31A3.85,3.85,0,0,0,4,142.84Z"/><path class="cls-2" d="M52.94,80.19c-15.79,1.39-28.17,8.67-34,20-4.81,9.38-5,21.53-.63,32.49C21.68,140.9,30.5,151,42,153.81c5.85,1.41,14.73,1.44,23.82-6.45a3.85,3.85,0,0,0-5-5.82c-5.31,4.61-11,6.22-17,4.78-8.48-2-15.63-9.87-18.32-16.54-3.55-8.8-3.42-18.8.33-26.1,2.68-5.23,9.86-14.24,27.79-15.82a3.85,3.85,0,0,0-.68-7.67Z"/><path class="cls-2" d="M39.35,100.49c-3.88,2.89-6.12,7.08-6.65,12.45-1.25,12.77,9.5,23.64,30.26,30.62,6,2,11.29,4,14.81,5.25l3.06,1.12c3,1.06,5,.45,6-1.81a4.22,4.22,0,0,0,.35-1.6c0-2.36-2.5-3.53-3.43-4a3.77,3.77,0,0,0-1.52-.34l-1.77-.64c-3.56-1.3-8.94-3.28-15-5.31-7.68-2.59-25.1-9.74-25.1-21.41,0-.39,0-.77,0-1.17a9.31,9.31,0,0,1,3.59-7c7.38-5.5,24.89-2,36.47.25l6.06,1.15a91.13,91.13,0,0,1,28.33,11.56,3.85,3.85,0,0,0,4.1-6.52,98.78,98.78,0,0,0-30.75-12.56l-.19,0-6.06-1.16C68.23,96.67,49.48,93,39.35,100.49Z"/><path class="cls-2" d="M65,142.27c-4.58,14.36-.07,24.26,4.52,30,8.71,10.94,23.56,15.15,30.86,14.55a3.85,3.85,0,1,0-.63-7.67c-5,.41-17.41-3.14-24.2-11.68-5-6.25-6.06-14-3.22-22.9A3.85,3.85,0,1,0,65,142.27Z"/><path class="cls-2" d="M24.87,3.49c-5.72,4.26-9,12.14-8.45,20.55C17.35,39.83,33,62.34,45.63,80.43c6,8.67,11.25,16.15,13.84,21.36a3.85,3.85,0,0,0,6.89-3.44C63.52,92.65,58.16,85,52,76,39.9,58.74,24.91,37.21,24.1,23.59c-.35-5.86,1.71-11.2,5.37-13.92C32.61,7.33,36.68,7,41.59,8.83c6.73,2.44,10.55,8.7,13.08,12.85l.07.11C61,32,90.72,74,100.26,86.3,109,97.64,116.38,107,123.82,115.83a2.91,2.91,0,0,0,.3.31C140.07,131.29,145,151,138.64,174.62c-5.49,20.57-25.14,36.33-46.72,37.49-26.59,1.42-48.27-8.79-59.48-28A3.85,3.85,0,0,0,25.79,188c12.72,21.81,37,33.41,66.54,31.82,24.82-1.32,47.42-19.48,53.75-43.18A81.12,81.12,0,0,0,149,155.72c0-17.36-6.52-32.63-19.29-44.89-7.35-8.72-14.64-18-23.32-29.23-9.46-12.25-38.89-53.74-45-63.82l-.07-.12c-2.71-4.44-7.76-12.7-17-16.07C36.94-1.06,30.07-.38,24.87,3.49Z"/></svg>