<?xml version="1.0" encoding="UTF-8"?>
<svg id="Layer_1" xmlns="http://www.w3.org/2000/svg" version="1.1" viewBox="0 0 300 300">
  <!-- Generator: Adobe Illustrator 29.1.0, SVG Export Plug-In . SVG Version: 2.1.0 Build 142)  -->
  <defs>
    <style>
      .st0 {
        fill: #fcd486;
      }

      .st0, .st1, .st2, .st3 {
        stroke: #231f20;
        stroke-miterlimit: 10;
        stroke-width: 5px;
      }

      .st1 {
        fill: #fff;
      }

      .st2 {
        fill: #72439a;
      }

      .st3 {
        fill: #be8d2d;
      }
    </style>
  </defs>
  <path class="st0" d="M210.05,128.35c0,51.47-28.58,13.75-63.84,13.75s-63.84,37.72-63.84-13.75,28.58-66.51,63.84-66.51,63.84,15.05,63.84,66.51Z"/>
  <path class="st2" d="M52.12,136.5c0-56.15,42.12-15,94.08-15s94.08-41.15,94.08,15-42.12,101.67-94.08,101.67-94.08-45.52-94.08-101.67Z"/>
  <ellipse class="st1" cx="161" cy="99.75" rx="2.5" ry="6.88"/>
  <ellipse class="st1" cx="132.5" cy="99.75" rx="2.5" ry="6.88"/>
  <ellipse class="st3" cx="200.17" cy="188.26" rx="38.39" ry="24.65" transform="translate(-70.7 234.53) rotate(-52.94)"/>
  <ellipse class="st3" cx="98.42" cy="163.19" rx="27.62" ry="38.43" transform="translate(-83.22 105.52) rotate(-41.29)"/>
</svg>